<svg width="102" height="66" viewBox="0 0 102 66" fill="none" xmlns="http://www.w3.org/2000/svg">
<g opacity="0.5" clip-path="url(#clip0_782_518)">
<path d="M53.383 36.0364C50.7448 35.1085 48.2017 33.9574 45.6585 32.7945C47.2153 31.573 48.7245 30.3161 50.2219 29.0946C52.9433 30.4219 55.4745 32.3952 58.7307 32.4187C56.5916 32.2777 54.6308 31.4907 52.8601 30.4101C52.0639 29.952 51.2082 29.4704 50.3051 29.0124C50.5071 28.8479 50.7091 28.6835 50.9112 28.5073C52.1114 27.5324 53.2404 26.4752 54.3812 25.4299C56.9838 26.8276 59.7051 27.9905 62.8424 28.0022C65.4212 28.1314 68.7606 27.2622 69.842 24.408C71.2799 19.4747 65.6232 17.7128 61.9987 19.1811C59.2179 20.2969 56.8174 22.235 54.5357 24.1965C53.1691 23.4683 51.8024 22.7048 50.4239 21.9296C53.7395 19.7566 57.7562 17.4074 58.5405 13.4256C59.3843 9.1501 55.8073 5.12127 51.434 5.27396C49.9129 4.8746 47.964 2.6194 50.0436 1.64449C51.6836 0.469907 52.765 2.50194 51.0062 2.6194C50.8993 2.88955 52.2659 3.77049 52.9908 2.26702C53.6088 0.693078 51.232 -0.587221 49.9486 0.305465C46.4429 2.39623 50.0199 5.69682 51.0062 5.20349L51.2914 5.28571C48.9741 5.42666 46.7043 6.57775 45.302 8.39836C44.0899 9.97231 43.7571 11.9339 44.7316 13.7192C45.611 15.3402 47.6075 16.0567 49.2355 15.5986C50.6854 15.3519 52.361 14.2008 51.232 11.8047C50.6735 10.3482 47.964 10.1015 47.5956 11.7459C47.346 13.3904 48.986 13.4256 49.0454 13.1437C47.6431 12.0631 49.699 10.9825 50.3883 12.8618C51.2796 14.3535 49.7822 15.1757 48.368 15.2579C46.7518 14.8703 45.1475 13.3081 45.0881 11.7342C44.8386 5.873 55.6528 3.65304 57.3997 9.26756C59.0634 14.6354 53.8821 18.8874 49.6277 21.0369C49.4851 21.1074 49.3306 21.1544 49.188 21.2248C48.1304 20.6493 47.0608 20.0855 45.9556 19.5687C43.7571 18.4176 41.3566 17.5366 38.8254 17.8068C34.6067 18.2649 34.06 20.6963 35.4385 22.7048C35.2603 22.2467 35.189 21.6947 35.2365 21.0134C37.6489 17.3135 43.8522 19.6274 47.7976 21.8474C47.0608 22.1763 46.3478 22.5286 45.611 22.8223C43.6502 23.5975 39.3245 25.1127 36.924 24.1613C37.946 24.8778 39.2532 25.3829 40.7149 25.4534C43.9354 25.6178 46.7637 24.455 49.3663 22.6578C50.7804 23.3861 52.1827 24.2083 53.6207 25.0188C53.4186 25.1949 53.1928 25.3829 52.9908 25.5708C51.8143 26.5927 50.6616 27.6146 49.5089 28.6365C48.986 28.4016 48.4512 28.2136 47.9046 28.0374C48.1304 28.1432 48.3562 28.2371 48.5701 28.3781C48.8553 28.472 49.1286 28.6012 49.4138 28.7187C47.9521 29.999 46.4666 31.2558 44.9217 32.4421C42.9728 31.5612 41.0239 30.7038 39.0274 29.9403C41.4517 28.566 43.674 27.6146 45.6585 27.5911C44.9336 27.5324 44.1731 27.5441 43.4006 27.6733C41.6656 27.9787 40.1088 28.8009 38.5639 29.7641C37.435 29.353 36.306 28.9654 35.1414 28.6482C29.9007 27.2387 23.4003 26.3108 19.5856 31.2206C17.8624 33.4405 18.1952 36.5297 19.8946 38.6205C17.1019 40.0182 13.9289 40.3589 10.8273 38.9024C10.2687 38.644 9.71019 38.2916 9.23484 37.857C9.66265 37.6103 10.0311 37.3519 10.3044 37.1287C11.5165 36.1538 13.1208 34.3685 12.5742 32.6536C11.5997 29.5879 7.36909 32.3129 7.40474 34.7678C7.40474 35.731 7.68995 36.6002 8.14153 37.3519C7.00069 37.8805 5.76478 38.2211 4.70713 38.3386C3.13847 38.503 1.42722 38.3386 0.9994 37.0583C0.476515 35.637 3.49499 35.0145 3.28108 36.471C4.70713 35.0732 -0.569255 34.3567 0.749841 37.8687C1.86691 40.8287 6.13318 39.5601 8.75949 38.1389C9.21107 38.6322 9.72207 39.0786 10.3638 39.4074C12.6811 40.5938 15.45 40.629 17.9456 40.0417C18.7418 39.8538 19.6331 39.5954 20.4531 39.243C21.285 40.03 22.3307 40.6173 23.5904 40.8287C25.7057 41.1928 27.8686 41.1928 29.9839 40.8404C35.8782 39.889 40.8694 36.5884 45.5159 32.9237C48.1304 33.9926 50.7329 35.1085 53.4067 36.0364H53.383ZM56.758 23.3978C58.9327 21.7417 61.2738 20.015 64.1378 19.8388C66.3125 19.6979 69.6637 21.5537 68.8081 24.1143C67.5484 27.9082 61.2857 27.3562 58.4455 26.0406C57.3878 25.6178 56.3658 25.1362 55.3557 24.6077C55.8191 24.2083 56.2707 23.7737 56.7698 23.3978H56.758ZM8.56935 37.1287C8.14153 36.4945 7.91574 35.7662 8.094 34.9205C8.5337 32.8767 12.4672 31.9371 11.2907 34.5212C10.7797 35.6253 9.75772 36.4945 8.58123 37.117L8.56935 37.1287ZM20.3937 38.3738C19.8589 37.7043 19.443 36.9408 19.2647 36.0716C19.0865 35.1437 19.1102 34.0161 19.5143 33.1469C22.1762 27.4971 29.8056 28.1666 34.88 29.3177C35.9139 29.5527 36.924 29.8346 37.9341 30.1517C36.4249 31.1266 34.9156 32.1955 33.2757 33.0059C31.4099 34.4272 27.6309 35.731 25.5037 34.7678C26.0622 34.0278 26.5495 33.2644 26.8703 32.5009C28.1538 29.4939 24.0658 28.2724 23.3765 31.3263C23.0913 32.6066 23.329 34.2275 24.4698 35.0497C23.9826 35.6018 23.4835 36.0834 23.1151 36.4122C22.2713 37.1757 21.3444 37.8452 20.3818 38.3738H20.3937ZM24.9808 34.4389C24.3866 33.9691 23.9945 33.2526 23.9588 32.172C23.8875 30.598 25.777 29.4939 26.193 31.4085C26.3831 32.3129 25.7651 33.4405 24.9808 34.4389ZM41.3091 34.9558C36.4367 38.0097 29.0807 42.2852 23.0794 40.2766C22.2713 40.0065 21.5702 39.5366 20.9641 38.9846C21.1661 38.8789 21.3681 38.7732 21.5464 38.6557C22.7467 37.8335 23.9826 36.6589 25.0283 35.3904C27.1912 36.4357 29.4135 35.4608 31.1841 34.8266C33.7391 33.2526 36.1397 31.6082 38.3857 30.2927C40.5129 30.9622 42.6044 31.7609 44.6841 32.6066C43.6026 33.4288 42.4856 34.2275 41.3091 34.9675V34.9558Z" fill="#111111"/>
<path d="M101.274 33.8516C100.157 30.8917 95.8911 32.1602 93.2648 33.5815C92.8133 33.0882 92.3023 32.6418 91.6605 32.3129C89.3432 31.1266 86.5743 31.0914 84.0787 31.6787C84.0074 31.6904 83.9242 31.7139 83.8529 31.7374C83.0686 31.0914 82.0941 30.6098 80.9771 30.4219C78.8617 30.0695 76.6989 30.0695 74.5836 30.4101C68.6892 31.3615 63.6981 34.6621 59.0515 38.3268C56.4371 37.2462 53.8346 36.1421 51.1607 35.2142C53.7989 36.1421 56.342 37.2932 58.8852 38.456C57.0907 39.8773 55.3557 41.3338 53.6325 42.7315C53.4899 42.849 53.3592 42.9899 53.2166 43.1074C51.6955 42.6728 49.806 40.4528 51.8619 39.4897C53.5018 38.3151 54.5832 40.3471 52.8126 40.4763C52.7056 40.7465 54.0841 41.6157 54.7971 40.1239C55.4151 38.55 53.0383 37.2579 51.7549 38.1624C49.5089 39.5014 50.1625 41.322 51.1845 42.3439C48.6889 41.0284 46.2884 39.3487 43.2818 39.3135C45.4209 39.4544 47.3817 40.2414 49.1524 41.322C49.8892 41.7449 50.6735 42.1912 51.4816 42.6141C51.85 42.9077 52.2184 43.0839 52.5155 43.1074C52.6818 43.1779 52.8482 43.2483 53.0146 43.3071C52.052 44.1293 51.1132 44.975 50.1744 45.8324C47.5718 44.4347 44.8386 43.2718 41.7131 43.2601C39.1344 43.1309 35.795 44.0001 34.7136 46.8543C33.2757 51.7876 38.9323 53.5495 42.5688 52.093C45.3377 50.9771 47.7501 49.0391 50.0199 47.0775C51.3865 47.8057 52.7531 48.5692 54.1317 49.3444C50.8161 51.5174 46.8113 53.8666 46.0269 57.8484C45.1832 62.1357 48.7721 66.1763 53.1572 66.0001C55.522 65.9061 57.8513 64.7315 59.2773 62.8639C60.4895 61.29 60.8222 59.3284 59.8477 57.5431C58.5286 55.1234 54.714 54.6536 53.3592 57.2377C54.9397 54.219 59.3724 56.897 59.4912 59.5398C59.7408 65.401 48.9266 67.621 47.1797 62.0065C45.5159 56.6386 50.6973 52.3866 54.9516 50.2371C55.0942 50.1666 55.2487 50.1079 55.3913 50.0374C56.449 50.6247 57.5185 51.1768 58.6237 51.7054C60.8222 52.8565 63.2227 53.7374 65.754 53.4672C69.9727 53.0092 70.5312 50.5778 69.1408 48.5692C69.3191 49.0273 69.3904 49.5794 69.3429 50.2606C66.9305 53.9606 60.7271 51.6466 56.7817 49.4149C57.5185 49.086 58.2315 48.7454 58.9683 48.44C60.9292 47.6648 65.2548 46.1496 67.6554 47.0892C66.6334 46.3727 65.3261 45.8677 63.8644 45.7972C60.6439 45.6328 57.8156 46.7956 55.2131 48.5927C53.7989 47.8645 52.3966 47.0305 50.9587 46.2318C51.1726 46.0556 51.3865 45.8677 51.5885 45.6797C52.3847 44.9867 53.1572 44.3055 53.9296 43.6242C54.0009 43.6477 54.0603 43.6594 54.1317 43.6829C54.0722 43.6594 54.0128 43.6242 53.9534 43.6007C54.0128 43.5537 54.0603 43.5067 54.1198 43.4598C55.938 41.8623 57.7443 40.2884 59.6576 38.8201C61.2619 39.5484 62.8543 40.2649 64.4824 40.9227C61.4758 42.755 58.7544 44.1175 56.3777 44.141C57.1026 44.1998 57.8513 44.188 58.6356 44.0471C60.8935 43.6477 62.8662 42.3791 64.8746 41.0519C66.3719 41.6392 67.8811 42.1677 69.4498 42.5906C74.6905 44.0118 81.1909 44.928 85.0056 40.0182C86.8357 37.6691 86.3485 34.3215 84.3401 32.2425C86.5505 31.6434 88.8916 31.7256 91.209 32.8063C91.7675 33.0647 92.326 33.417 92.8014 33.8516C92.3736 34.0983 92.0052 34.3567 91.72 34.5799C90.5197 35.5548 88.9035 37.3519 89.4502 39.0551C90.4246 42.1207 94.6552 39.3957 94.6196 36.9408C94.6077 35.9776 94.3344 35.1085 93.8828 34.3567C95.0236 33.8282 96.2596 33.4875 97.3172 33.3701C98.874 33.1939 100.597 33.3701 101.025 34.6504C101.548 36.0716 98.5412 36.6941 98.7432 35.2259C97.3291 36.6237 102.605 37.3402 101.274 33.8282V33.8516ZM47.7857 47.8527C45.611 49.5089 43.2699 51.2355 40.4059 51.4117C38.2312 51.5527 34.88 49.6968 35.7356 47.1362C36.9953 43.3423 43.258 43.8944 46.0982 45.2099C47.1559 45.6327 48.1779 46.1143 49.188 46.6429C48.7245 47.054 48.273 47.4768 47.7738 47.8645L47.7857 47.8527ZM53.0859 43.2014C52.967 43.1544 52.8482 43.1074 52.7413 43.0604C52.765 43.0604 52.7888 43.0604 52.8007 43.0487L53.1453 43.1544C53.1453 43.1544 53.1096 43.1896 53.0859 43.2014ZM59.8477 38.6557C60.9292 37.8335 62.0462 37.0348 63.2227 36.2948C68.0951 33.2409 75.4511 28.9654 81.4524 30.9739C82.0822 31.1853 82.6289 31.526 83.1399 31.9136C82.1892 32.1837 81.2028 32.5361 80.4304 33.0647C79.2301 33.8869 77.9942 35.0615 76.9485 36.33C74.7856 35.2846 72.5634 36.2595 70.7927 36.8938C68.7605 38.1506 66.8235 39.4427 64.9815 40.582C63.2465 39.9947 61.5471 39.3252 59.8477 38.644V38.6557ZM76.996 37.2814C77.5902 37.7395 77.9823 38.4678 78.018 39.5366C78.0893 41.1106 76.1998 42.2147 75.7838 40.3001C75.5937 39.3957 76.2117 38.2798 76.996 37.2814ZM85.2552 35.1789C85.4334 36.1069 85.4097 37.2345 85.0056 38.1036C82.3437 43.7534 74.7262 43.0839 69.6399 41.9328C68.1901 41.6039 66.7641 41.1811 65.3618 40.7112C66.4432 39.9947 67.5365 39.29 68.6892 38.7144C70.555 37.2932 74.334 35.9894 76.4612 36.9526C75.9146 37.6925 75.4155 38.456 75.0946 39.2195C73.8111 42.2264 77.8992 43.4598 78.5884 40.3941C78.8736 39.1138 78.636 37.4929 77.507 36.6707C77.9942 36.1186 78.4933 35.637 78.8617 35.3081C80.3116 34.0043 81.9872 33.0059 83.7578 32.4187C84.5065 33.1704 85.0532 34.1101 85.2671 35.1789H85.2552ZM93.8947 36.7881C93.455 38.8319 89.5215 39.7716 90.698 37.1757C91.209 36.0716 92.231 35.2024 93.4074 34.5799C93.8353 35.2142 94.0611 35.9542 93.8828 36.7881H93.8947Z" fill="#111111"/>
</g>
<defs>
<clipPath id="clip0_782_518">
<rect width="101" height="66" fill="white" transform="translate(0.5)"/>
</clipPath>
</defs>
</svg>
