<svg width="101" height="66" viewBox="0 0 101 66" fill="none" xmlns="http://www.w3.org/2000/svg">
<g opacity="0.5" clip-path="url(#clip0_423_118)">
<path d="M52.8825 36.0363C50.2443 35.1083 47.7012 33.9572 45.1581 32.7944C46.7148 31.5728 48.2241 30.316 49.7214 29.0945C52.4428 30.4217 54.974 32.395 58.2302 32.4185C56.0911 32.2776 54.1303 31.4906 52.3596 30.41C51.5634 29.9519 50.7078 29.4703 49.8046 29.0122C50.0066 28.8478 50.2086 28.6833 50.4107 28.5072C51.6109 27.5323 52.7399 26.4751 53.8807 25.4297C56.4833 26.8275 59.2046 27.9903 62.342 28.0021C64.9207 28.1313 68.2601 27.2621 69.3415 24.4079C70.7794 19.4746 65.1227 17.7127 61.4982 19.1809C58.7174 20.2968 56.3169 22.2349 54.0352 24.1964C52.6686 23.4682 51.3019 22.7047 49.9234 21.9295C53.239 19.7565 57.2557 17.4073 58.04 13.4255C58.8838 9.14998 55.3068 5.12115 50.9336 5.27384C49.4124 4.87448 47.4635 2.61928 49.5432 1.64437C51.1831 0.469785 52.2645 2.50182 50.5057 2.61928C50.3988 2.88943 51.7654 3.77037 52.4903 2.2669C53.1083 0.692956 50.7315 -0.587343 49.4481 0.305343C45.9424 2.39611 49.5194 5.69669 50.5057 5.20337L50.791 5.28559C48.4736 5.42654 46.2038 6.57763 44.8015 8.39824C43.5894 9.97219 43.2566 11.9337 44.2311 13.7191C45.1105 15.34 47.107 16.0565 48.7351 15.5985C50.1849 15.3518 51.8605 14.2007 50.7315 11.8045C50.173 10.3481 47.4635 10.1014 47.0951 11.7458C46.8455 13.3902 48.4855 13.4255 48.5449 13.1436C47.1426 12.063 49.1985 10.9823 49.8878 12.8617C50.7791 14.3534 49.2817 15.1756 47.8675 15.2578C46.2514 14.8702 44.647 13.308 44.5876 11.7341C44.3381 5.87288 55.1523 3.65291 56.8992 9.26744C58.5629 14.6353 53.3816 18.8873 49.1272 21.0368C48.9846 21.1073 48.8301 21.1542 48.6875 21.2247C47.6299 20.6492 46.5603 20.0854 45.4551 19.5686C43.2566 18.4175 40.8561 17.5365 38.3249 17.8067C34.1062 18.2648 33.5595 20.6962 34.938 22.7047C34.7598 22.2466 34.6885 21.6946 34.736 21.0133C37.1484 17.3134 43.3517 19.6273 47.2971 21.8473C46.5603 22.1761 45.8473 22.5285 45.1105 22.8222C43.1497 23.5974 38.824 25.1126 36.4235 24.1612C37.4455 24.8777 38.7527 25.3828 40.2144 25.4532C43.4349 25.6177 46.2632 24.4548 48.8658 22.6577C50.2799 23.386 51.6822 24.2082 53.1202 25.0186C52.9181 25.1948 52.6923 25.3828 52.4903 25.5707C51.3138 26.5926 50.1611 27.6145 49.0084 28.6364C48.4855 28.4014 47.9507 28.2135 47.4041 28.0373C47.6299 28.143 47.8557 28.237 48.0696 28.378C48.3548 28.4719 48.6281 28.6011 48.9133 28.7186C47.4516 29.9989 45.9661 31.2557 44.4213 32.442C42.4723 31.5611 40.5234 30.7036 38.5269 29.9402C40.9512 28.5659 43.1735 27.6145 45.1581 27.591C44.4331 27.5323 43.6726 27.544 42.9001 27.6732C41.1651 27.9786 39.6083 28.8008 38.0634 29.764C36.9345 29.3529 35.8055 28.9652 34.6409 28.6481C29.4002 27.2386 22.8998 26.3107 19.0851 31.2205C17.362 33.4404 17.6947 36.5296 19.3941 38.6203C16.6014 40.0181 13.4284 40.3587 10.3268 38.9022C9.76824 38.6438 9.2097 38.2915 8.73435 37.8569C9.16217 37.6102 9.53056 37.3518 9.80389 37.1286C11.016 36.1537 12.6203 34.3683 12.0737 32.6534C11.0992 29.5878 6.8686 32.3128 6.90425 34.7677C6.90425 35.7309 7.18946 36.6001 7.64105 37.3518C6.50021 37.8804 5.2643 38.221 4.20664 38.3384C2.63799 38.5029 0.926727 38.3384 0.498912 37.0581C-0.0239732 35.6369 2.9945 35.0144 2.78059 36.4709C4.20664 35.0731 -1.06974 34.3566 0.249353 37.8686C1.36643 40.8286 5.63269 39.56 8.259 38.1388C8.71058 38.6321 9.22159 39.0784 9.86331 39.4073C12.1806 40.5936 14.9496 40.6289 17.4451 40.0416C18.2414 39.8537 19.1326 39.5952 19.9526 39.2429C20.7845 40.0298 21.8302 40.6171 23.0899 40.8286C25.2052 41.1927 27.3681 41.1927 29.4834 40.8403C35.3777 39.8889 40.3689 36.5883 45.0154 32.9236C47.6299 33.9925 50.2324 35.1083 52.9063 36.0363H52.8825ZM56.2575 23.3977C58.4322 21.7415 60.7733 20.0149 63.6373 19.8387C65.812 19.6978 69.1632 21.5536 68.3076 24.1142C67.0479 27.9081 60.7852 27.3561 57.945 26.0405C56.8873 25.6177 55.8653 25.1361 54.8552 24.6075C55.3187 24.2082 55.7702 23.7736 56.2694 23.3977H56.2575ZM8.06886 37.1286C7.64105 36.4943 7.41525 35.7661 7.59351 34.9204C8.03321 32.8766 11.9667 31.9369 10.7902 34.521C10.2792 35.6251 9.25724 36.4943 8.08074 37.1169L8.06886 37.1286ZM19.8932 38.3737C19.3584 37.7042 18.9425 36.9407 18.7642 36.0715C18.586 35.1436 18.6097 34.016 19.0138 33.1468C21.6758 27.497 29.3051 28.1665 34.3795 29.3176C35.4134 29.5525 36.4235 29.8344 37.4336 30.1516C35.9244 31.1265 34.4151 32.1954 32.7752 33.0058C30.9094 34.4271 27.1304 35.7309 25.0032 34.7677C25.5617 34.0277 26.049 33.2642 26.3698 32.5008C27.6533 29.4938 23.5653 28.2722 22.876 31.3262C22.5908 32.6065 22.8285 34.2274 23.9693 35.0496C23.4821 35.6017 22.983 36.0832 22.6146 36.4121C21.7708 37.1756 20.8439 37.8451 19.8813 38.3737H19.8932ZM24.4803 34.4388C23.8861 33.969 23.494 33.2525 23.4583 32.1719C23.387 30.5979 25.2765 29.4938 25.6925 31.4084C25.8826 32.3128 25.2647 33.4404 24.4803 34.4388ZM40.8086 34.9556C35.9363 38.0096 28.5802 42.2851 22.5789 40.2765C21.7708 40.0064 21.0697 39.5365 20.4636 38.9845C20.6656 38.8787 20.8677 38.773 21.0459 38.6556C22.2462 37.8334 23.4821 36.6588 24.5279 35.3902C26.6907 36.4356 28.913 35.4607 30.6836 34.8264C33.2386 33.2525 35.6392 31.6081 37.8852 30.2925C40.0124 30.962 42.1039 31.7608 44.1836 32.6065C43.1022 33.4287 41.9851 34.2274 40.8086 34.9674V34.9556Z" fill="#596A83"/>
<path d="M100.774 33.8516C99.6573 30.8916 95.3911 32.1602 92.7647 33.5814C92.3132 33.0881 91.8022 32.6417 91.1604 32.3129C88.8431 31.1265 86.0742 31.0913 83.5786 31.6786C83.5073 31.6903 83.4241 31.7138 83.3528 31.7373C82.5685 31.0913 81.594 30.6097 80.477 30.4218C78.3616 30.0694 76.1988 30.0694 74.0835 30.41C68.1892 31.3614 63.198 34.662 58.5514 38.3267C55.937 37.2461 53.3345 36.142 50.6606 35.2141C53.2988 36.142 55.8419 37.2931 58.3851 38.4559C56.5906 39.8772 54.8556 41.3337 53.1324 42.7314C52.9898 42.8489 52.8591 42.9898 52.7165 43.1073C51.1954 42.6727 49.3059 40.4527 51.3618 39.4896C53.0017 38.315 54.0831 40.347 52.3125 40.4762C52.2055 40.7464 53.584 41.6156 54.297 40.1239C54.915 38.5499 52.5383 37.2579 51.2548 38.1623C49.0088 39.5013 49.6624 41.3219 50.6844 42.3438C48.1888 41.0283 45.7883 39.3486 42.7817 39.3134C44.9208 39.4543 46.8816 40.2413 48.6523 41.3219C49.3891 41.7448 50.1734 42.1911 50.9815 42.614C51.3499 42.9076 51.7183 43.0838 52.0154 43.1073C52.1817 43.1778 52.3481 43.2483 52.5145 43.307C51.5519 44.1292 50.6131 44.9749 49.6743 45.8323C47.0717 44.4346 44.3385 43.2718 41.213 43.26C38.6343 43.1308 35.2949 44 34.2135 46.8542C32.7756 51.7875 38.4322 53.5494 42.0687 52.0929C44.8376 50.977 47.25 49.039 49.5198 47.0774C50.8864 47.8057 52.253 48.5691 53.6316 49.3444C50.316 51.5173 46.3112 53.8665 45.5268 57.8484C44.6831 62.1356 48.272 66.1762 52.6571 66C55.022 65.906 57.3512 64.7314 58.7772 62.8638C59.9894 61.2899 60.3221 59.3283 59.3476 57.543C58.0285 55.1233 54.2139 54.6535 52.8591 57.2376C54.4397 54.2189 58.8723 56.8969 58.9911 59.5398C59.2407 65.401 48.4265 67.6209 46.6796 62.0064C45.0158 56.6385 50.1972 52.3865 54.4515 50.237C54.5941 50.1666 54.7486 50.1078 54.8912 50.0374C55.9489 50.6247 57.0184 51.1767 58.1236 51.7053C60.3221 52.8564 62.7226 53.7373 65.2539 53.4672C69.4726 53.0091 70.0311 50.5777 68.6407 48.5691C68.819 49.0272 68.8903 49.5793 68.8428 50.2605C66.4304 53.9605 60.227 51.6465 56.2816 49.4148C57.0184 49.086 57.7315 48.7453 58.4682 48.4399C60.4291 47.6647 64.7547 46.1495 67.1553 47.0892C66.1333 46.3727 64.8261 45.8676 63.3644 45.7971C60.1439 45.6327 57.3155 46.7955 54.713 48.5926C53.2988 47.8644 51.8965 47.0304 50.4586 46.2317C50.6725 46.0555 50.8864 45.8676 51.0884 45.6796C51.8846 44.9866 52.6571 44.3054 53.4295 43.6241C53.5008 43.6476 53.5603 43.6594 53.6316 43.6829C53.5721 43.6594 53.5127 43.6241 53.4533 43.6006C53.5127 43.5536 53.5603 43.5067 53.6197 43.4597C55.4379 41.8622 57.2442 40.2883 59.1575 38.8201C60.7618 39.5483 62.3542 40.2648 63.9823 40.9226C60.9757 42.7549 58.2543 44.1175 55.8776 44.1409C56.6025 44.1997 57.3512 44.1879 58.1355 44.047C60.3934 43.6476 62.3661 42.3791 64.3745 41.0518C65.8718 41.6391 67.3811 42.1676 68.9497 42.5905C74.1904 44.0117 80.6909 44.9279 84.5055 40.0181C86.3356 37.669 85.8484 34.3214 83.8401 32.2424C86.0504 31.6433 88.3915 31.7256 90.7089 32.8062C91.2674 33.0646 91.8259 33.417 92.3013 33.8516C91.8735 34.0982 91.5051 34.3566 91.2199 34.5798C90.0196 35.5547 88.4034 37.3518 88.9501 39.055C89.9245 42.1207 94.1551 39.3956 94.1195 36.9407C94.1076 35.9776 93.8343 35.1084 93.3827 34.3566C94.5235 33.8281 95.7595 33.4874 96.8171 33.37C98.3739 33.1938 100.097 33.37 100.525 34.6503C101.048 36.0715 98.0411 36.6941 98.2432 35.2258C96.829 36.6236 102.105 37.3401 100.774 33.8281V33.8516ZM47.2856 47.8526C45.1109 49.5088 42.7698 51.2354 39.9058 51.4116C37.7311 51.5526 34.3799 49.6967 35.2355 47.1361C36.4952 43.3422 42.7579 43.8943 45.5981 45.2098C46.6558 45.6327 47.6778 46.1142 48.6879 46.6428C48.2245 47.0539 47.7729 47.4768 47.2738 47.8644L47.2856 47.8526ZM52.5858 43.2013C52.467 43.1543 52.3481 43.1073 52.2412 43.0603C52.2649 43.0603 52.2887 43.0603 52.3006 43.0486L52.6452 43.1543C52.6452 43.1543 52.6096 43.1895 52.5858 43.2013ZM59.3476 38.6556C60.4291 37.8334 61.5461 37.0347 62.7226 36.2947C67.595 33.2408 74.951 28.9653 80.9523 30.9738C81.5821 31.1853 82.1288 31.5259 82.6398 31.9135C81.6891 32.1837 80.7027 32.536 79.9303 33.0646C78.73 33.8868 77.4941 35.0614 76.4484 36.3299C74.2855 35.2846 72.0633 36.2595 70.2926 36.8937C68.2605 38.1506 66.3234 39.4426 64.4814 40.5819C62.7464 39.9947 61.047 39.3251 59.3476 38.6439V38.6556ZM76.4959 37.2814C77.0901 37.7394 77.4823 38.4677 77.5179 39.5366C77.5892 41.1105 75.6997 42.2146 75.2838 40.3C75.0936 39.3956 75.7116 38.2798 76.4959 37.2814ZM84.7551 35.1789C84.9334 36.1068 84.9096 37.2344 84.5055 38.1036C81.8436 43.7533 74.2261 43.0838 69.1399 41.9327C67.69 41.6038 66.264 41.181 64.8617 40.7112C65.9431 39.9947 67.0364 39.2899 68.1892 38.7144C70.0549 37.2931 73.8339 35.9893 75.9611 36.9525C75.4145 37.6925 74.9154 38.4559 74.5945 39.2194C73.3111 42.2264 77.3991 43.4597 78.0883 40.394C78.3735 39.1137 78.1359 37.4928 77.0069 36.6706C77.4941 36.1185 77.9933 35.6369 78.3616 35.3081C79.8115 34.0043 81.4871 33.0059 83.2577 32.4186C84.0064 33.1703 84.5531 34.11 84.767 35.1789H84.7551ZM93.3946 36.788C92.9549 38.8318 89.0214 39.7715 90.1979 37.1756C90.7089 36.0715 91.7309 35.2023 92.9074 34.5798C93.3352 35.2141 93.561 35.9541 93.3827 36.788H93.3946Z" fill="#596A83"/>
</g>
<defs>
<clipPath id="clip0_423_118">
<rect width="101" height="66" fill="white"/>
</clipPath>
</defs>
</svg>
