<svg width="641" height="150" viewBox="0 0 641 150" fill="none" xmlns="http://www.w3.org/2000/svg">
<g clip-path="url(#clip0_320_6)">
<path d="M107.63 125.8C98.85 136.01 84.96 147.03 67.89 147.03C50.82 147.03 48.89 138.57 48.89 133.94V20.5499C48.89 12.1599 52.96 8.57995 66.61 7.89995V7.06995H0V7.89995C13.65 8.57995 17.72 12.1599 17.72 20.5499V134.5C17.72 142.89 13.65 146.47 0 147.15V147.98H115.61L122.87 95.1099H121.96C120 101.5 114.58 117.71 107.63 125.8Z" fill="black"/>
<path d="M640.389 136.15C626.489 150.54 621.579 145.05 621.579 140.43V69.05C621.579 56.41 611.799 45.48 584.299 49.1C564.559 51.69 547.189 62.43 540.749 71.54L562.899 83.72C568.019 57.6 577.369 50.28 585.399 49.57C591.119 49.07 594.399 51.51 594.399 58.31V87.86C589.989 89.81 568.869 99.15 556.369 104.81C542.359 111.15 535.539 119.09 535.539 131.15C535.539 141.92 543.359 148.71 556.009 149.63C567.269 150.45 578.399 147 594.679 134.75C595.699 140.42 599.879 148.16 610.989 149.46C624.079 150.99 632.099 146.23 640.999 136.71L640.399 136.17L640.389 136.15ZM594.399 124.76C589.679 133.21 584.209 138.62 576.239 138.4C568.019 138.17 562.669 133.05 563.789 120.52C564.889 108.2 571.599 101.66 578.079 97.78C583.719 94.39 591.829 90.25 594.409 88.94V124.76H594.399Z" fill="black"/>
<path d="M520.15 134.5V68.85C520.15 55.57 508.44 47.78 493.71 47.78C481.02 47.78 470.99 53.4 465.05 56.93C461.84 58.84 457.51 61.46 454.21 63.47V20.53L422.53 37.97C412.31 43.22 405.32 45.42 395.72 44.29C382.64 42.75 372.24 34.01 369.55 24.64C372.3 27.92 376.41 30.01 381.02 30.01C389.3 30.01 396.02 23.3 396.02 15.01C396.02 6.72002 389.31 0.0200195 381.02 0.0200195C372.73 0.0200195 366.03 6.73002 366.03 15.01C366.03 31.4 377.89 43.81 395.53 45.89C397.27 46.1 398.92 46.2 400.53 46.2C405.79 46.2 410.47 45.09 415.71 42.95L427.04 56.42V134.52C427.04 142.87 424.43 146.45 410.99 147.16C397.55 146.45 394.94 142.87 394.94 134.52V48.05L355.73 69.63L367.76 83.93V134.5C367.76 142.89 365.13 146.47 351.48 147.15V147.98H470.49V147.15C456.85 146.47 454.21 142.9 454.21 134.5V65.39C458.33 62.89 464.32 59.26 465.9 58.33C468.36 56.88 472.45 54.08 478.87 54.08C485.29 54.08 492.97 57.9 492.97 70.68V134.51C492.97 142.9 490.34 146.48 476.69 147.16V147.99H536.42V147.16C522.77 146.48 520.14 142.91 520.14 134.51" fill="black"/>
<path d="M231.84 68.64L231.83 68.65L231.85 68.68L231.84 68.64Z" fill="black"/>
<path d="M335.2 134.51V68.85C335.2 55.57 323.49 47.78 308.76 47.78C296.07 47.78 286.03 53.4 280.1 56.93C276.89 58.84 272.57 61.46 269.26 63.47V48.05L231.89 68.62L241.03 79.48C236.17 82.16 231.08 84.89 225.96 87.52C223.18 63.77 204.26 47.67 178.9 47.67C150.31 47.67 131.92 71.22 131.92 99.87C131.92 128.52 151.39 149.73 179.66 149.73C204.6 149.73 222.04 134.89 226.17 113.33H225.33C219.47 125.55 206.92 133.97 192.38 133.97C172.92 133.97 158.37 121.71 156.58 98.56C157.52 100.14 158.82 101.47 160.5 102.51C163.73 104.51 168.12 105.35 173.16 105.35C187.96 105.35 208.37 98.09 221.45 91.6C228.41 88.15 235.48 84.3801 242.09 80.73V134.51C242.09 142.9 239.46 146.48 225.81 147.16V147.99H285.54V147.16C271.89 146.48 269.26 142.91 269.26 134.51V65.4C273.38 62.9 279.37 59.27 280.95 58.34C283.41 56.89 287.5 54.09 293.92 54.09C300.34 54.09 308.02 57.91 308.02 70.68V134.51C308.02 142.9 305.39 146.48 291.74 147.16V147.99H351.47V147.16C337.82 146.48 335.19 142.91 335.19 134.51M200.26 98.56C184.36 103.79 168.88 105.84 161.31 101.15C158.2 99.22 156.36 96.03 156.36 92C156.36 68.09 165.68 48.44 179.95 48.44C194.22 48.44 200.26 61.5 200.26 92V98.56Z" fill="black"/>
</g>
<defs>
<clipPath id="clip0_320_6">
<rect width="640.99" height="149.73" fill="white"/>
</clipPath>
</defs>
</svg>
