<svg width="33" height="28" viewBox="0 0 33 28" fill="none" xmlns="http://www.w3.org/2000/svg">
<g id="_&#234;&#178;&#169;&#235;&#166;&#172;_&#235;&#170;&#168;&#235;&#147;&#156;" clip-path="url(#clip0_423_43)">
<path id="Vector" d="M16.6225 22.5455C16.1143 23.342 15.7463 24.1905 15.5885 25.0563C15.4308 25.8875 15.7463 27.2208 16.3771 27.8095C16.4648 27.8961 16.5349 27.9481 16.6225 28C16.7101 27.9481 16.7977 27.8961 16.8678 27.8095C17.4987 27.2208 17.8142 25.8875 17.6564 25.0563C17.4987 24.1905 17.1307 23.342 16.6225 22.5455Z" fill="white"/>
<path id="Vector_2" d="M32.4652 14.5974C32.3074 13.7662 31.5013 13.1428 30.7477 13.8874C29.9241 14.7186 31.1333 15.6883 31.256 15.3766C30.5374 17.1602 27.9613 17.0216 26.4016 16.7446C24.9646 16.4848 23.4925 15.9134 22.1081 15.1342C23.1946 15.6537 24.3688 16 25.5604 15.9654C26.6995 15.9307 27.9263 15.4978 28.785 14.7532C29.1179 14.4589 29.3458 14.026 29.4159 13.5931C29.4159 13.5584 29.4334 13.5584 29.4334 13.5238C29.4334 13.4545 29.4334 13.3853 29.4334 13.316C29.4334 13.2467 29.4334 13.1775 29.4334 13.1255C29.4334 13.0909 29.4159 13.0736 29.4159 13.0563C29.3458 12.6234 29.1355 12.1905 28.785 11.8788C27.9263 11.1342 26.6995 10.7013 25.5604 10.6666C23.5101 10.6147 21.5473 11.6017 19.8825 12.8485C19.8124 12.9004 19.7598 12.9524 19.7072 13.0043C18.6733 12.2944 17.7269 11.3939 16.8857 10.4242C16.9909 10.303 17.0785 10.1645 17.1486 10.0433C18.498 8.29436 19.532 6.23375 19.4794 4.08656C19.4443 2.89176 18.9887 1.57574 18.165 0.675308C17.3239 -0.277073 15.6415 -0.173177 14.8178 0.744572C13.9942 1.66232 13.5385 2.96102 13.5035 4.17314C13.4509 6.33765 14.5024 8.43288 15.8868 10.1991C15.9569 10.2857 16.0446 10.3723 16.1322 10.4762C15.7466 11.013 15.3261 11.5325 14.8529 12.0173C14.4498 12.3636 14.0643 12.7099 13.6262 13.0043C13.5736 12.9524 13.521 12.9004 13.4509 12.8485C11.7861 11.5844 9.82331 10.6147 7.77293 10.6666C6.63383 10.7013 5.4071 11.1342 4.5484 11.8788C4.1979 12.1731 3.98761 12.606 3.91751 13.0389C3.91751 13.0736 3.91751 13.0736 3.89998 13.1082C3.89998 13.1775 3.89998 13.2467 3.89998 13.2987C3.89998 13.3506 3.89998 13.4372 3.89998 13.4892C3.89998 13.5238 3.91751 13.5411 3.91751 13.5584C3.98761 14.0086 4.1979 14.4242 4.5484 14.7359C5.4071 15.4805 6.63383 15.9134 7.77293 15.948C8.43887 15.948 9.08728 15.8441 9.71817 15.671C8.68421 16.1385 7.63273 16.5195 6.58125 16.7099C5.02156 16.987 2.46296 17.1255 1.72693 15.342C1.8496 15.671 3.07633 14.684 2.25267 13.8701C1.49911 13.1255 0.692974 13.7489 0.535252 14.5801C0.535252 14.632 0.517728 14.684 0.500203 14.7359C0.184759 17.2294 4.67107 17.2641 6.21324 17.1948C6.93175 17.1602 7.63273 17.0389 8.33372 16.8312C8.21105 16.9004 8.07085 16.9524 7.9657 17.0389C7.72036 17.2467 7.56263 17.5584 7.49254 17.9394C7.49254 17.9913 7.49254 18.026 7.49254 18.0779C7.49254 18.1299 7.49254 18.1818 7.49254 18.2684C7.54511 18.5801 7.70283 18.8918 7.94818 19.0996C8.56154 19.6363 9.4553 19.948 10.2614 19.9654C11.7335 20 13.153 19.3073 14.3447 18.3896C14.3797 18.355 14.4323 18.3203 14.4673 18.2857C15.1859 18.7879 15.8518 19.4112 16.4301 20.0866C15.8518 20.1558 15.4137 20.606 15.4137 21.1948C15.4137 21.8182 15.9219 22.3203 16.5528 22.3203C17.1837 22.3203 17.6919 21.8182 17.6919 21.1948C17.6919 20.6753 17.3414 20.2597 16.8507 20.1212C17.4465 19.4459 18.0949 18.8225 18.831 18.3203C18.866 18.355 18.9186 18.3896 18.9537 18.4242C20.1453 19.3247 21.5648 20.0346 23.0369 20C23.8606 19.9827 24.7368 19.671 25.3501 19.1342C25.5955 18.9264 25.7532 18.6147 25.8233 18.2338C25.8233 18.1818 25.8233 18.1299 25.8233 18.0952C25.8233 18.0606 25.8233 17.9913 25.8233 17.9047C25.7707 17.5931 25.613 17.2814 25.3326 17.0389C25.8058 17.1428 26.279 17.2294 26.7521 17.2467C28.2943 17.316 32.7806 17.2814 32.4652 14.7879C32.4652 14.7359 32.4652 14.684 32.4301 14.632L32.4652 14.5974ZM16.693 15.8268C16.693 15.8268 16.6755 15.8615 16.6579 15.8615C15.8693 14.9437 14.9931 14.0952 14.0468 13.316C14.8178 12.6407 15.5363 11.9134 16.2198 11.1342C16.3074 11.0303 16.3951 10.9437 16.4827 10.8571C17.2888 11.8095 18.1475 12.7099 19.1114 13.5238C18.2527 14.2511 17.4641 15.0303 16.728 15.8615L16.693 15.8268ZM23.9482 11.8095C25.21 11.5844 27.1902 12.0173 28.084 12.9524C28.1891 13.0736 28.2943 13.1948 28.3644 13.316C28.2943 13.4372 28.2067 13.5584 28.084 13.6796C27.1902 14.6147 25.1924 15.0476 23.9482 14.8225C22.6338 14.5974 21.3721 14.0606 20.1804 13.316C21.3721 12.5714 22.6338 12.0346 23.9482 11.8095ZM14.7477 5.88743C14.5024 4.5541 14.9756 2.44154 15.992 1.48916C16.1672 1.316 16.3775 1.19479 16.5703 1.10821C16.728 1.19479 16.8682 1.29868 16.9909 1.4199C18.0073 2.35496 18.4805 4.48483 18.2351 5.81817C17.9723 7.27271 17.3239 8.67531 16.4476 9.97401C15.6064 8.69263 14.9756 7.30734 14.7127 5.87011L14.7477 5.88743ZM5.24938 13.645C5.14423 13.5238 5.03909 13.4026 4.96899 13.2814C5.03909 13.1602 5.12671 13.0389 5.24938 12.9177C6.14314 11.9827 8.14095 11.5498 9.3852 11.7749C10.6995 12 11.9613 12.5368 13.153 13.2987C11.9613 14.0433 10.6995 14.5801 9.3852 14.8052C8.14095 15.0303 6.14314 14.5801 5.24938 13.6623V13.645ZM11.4531 19.1342C10.5593 19.29 9.12233 18.9783 8.47392 18.303C8.38629 18.2164 8.33372 18.1299 8.28115 18.0433C8.33372 17.9567 8.40382 17.8701 8.47392 17.7835C9.1048 17.1082 10.5418 16.7965 11.4531 16.9524C12.3994 17.1255 13.3107 17.5065 14.1694 18.0433C13.3107 18.5801 12.3994 18.961 11.4531 19.1342ZM14.3797 17.7143C13.188 16.8138 11.7685 16.1039 10.2965 16.1385C10.1212 16.1385 9.92846 16.2078 9.75322 16.2424C9.82331 16.2078 9.89341 16.1905 9.94599 16.1558C11.2779 15.4459 12.5396 14.5801 13.6963 13.6104C14.6952 14.303 15.6064 15.1688 16.4126 16.1039C16.3425 16.1731 16.2724 16.2597 16.2023 16.329C15.9394 16.606 15.6765 16.8658 15.3962 17.1082C15.3261 17.1775 14.5725 17.8355 14.5199 17.8008C14.4673 17.7662 14.4323 17.7316 14.3972 17.697L14.3797 17.7143ZM16.7105 19.9307C16.1147 19.2554 15.4663 18.6147 14.7653 18.0433C15.4487 17.4892 16.0621 16.8831 16.6404 16.2251H16.728C17.3063 16.8831 17.9372 17.5065 18.6207 18.0779C17.9197 18.6493 17.2888 19.2727 16.7105 19.9307ZM18.8836 17.8528C18.8836 17.8528 17.8321 17.0043 17.7269 16.9177C17.6744 16.8658 17.2538 16.4502 16.9734 16.1385C17.7269 15.2727 18.5681 14.4935 19.4969 13.8182C20.5834 14.7186 21.7576 15.5151 23.0018 16.1905C21.5648 16.1905 20.1979 16.8658 19.0413 17.7489C18.9887 17.7835 18.9537 17.8182 18.9186 17.8528H18.8836ZM24.912 18.3376C24.2636 19.013 22.8266 19.3247 21.9328 19.1688C20.9865 18.9957 20.0752 18.6147 19.2165 18.0779C20.0752 17.5411 20.9865 17.1602 21.9328 16.987C22.8266 16.8312 24.2636 17.1428 24.912 17.8182C24.9821 17.9047 25.0522 17.9913 25.1048 18.0779C25.0522 18.1645 24.9821 18.2511 24.912 18.3376Z" fill="white"/>
</g>
<defs>
<clipPath id="clip0_423_43">
<rect width="32" height="28" fill="white" transform="translate(0.5)"/>
</clipPath>
</defs>
</svg>
