<svg width="80" height="80" viewBox="0 0 80 80" fill="none" xmlns="http://www.w3.org/2000/svg">
<rect x="0.25" y="0.25" width="79.5" height="79.5" rx="39.75" stroke="#111111" stroke-width="0.5"/>
<g clip-path="url(#clip0_320_16)">
<path d="M43.4974 40.3964C40.3521 45.8261 36.3229 51.6199 31.2481 54.8311C34.088 56.1423 36.8162 57.3994 38.7839 57.4848C44.6309 57.7322 51.8554 50.5334 52.0433 46.321C52.102 45.0325 50.9831 44.0911 50.0551 44.0513C47.2212 43.9318 44.8394 46.5627 43.7881 48.0105C43.5414 48.2978 43.2595 48.1868 43.5091 47.8C44.5164 46.0053 47.1272 43.3828 49.9641 43.5023C51.5264 43.5677 52.8362 45.3625 52.7452 47.4445C52.4545 53.8896 46.9803 58.2783 40.0936 57.9882C36.3317 57.8289 33.3156 56.5604 30.5345 55.2008C28.1557 56.5405 25.6242 57.3283 22.8461 57.2601C20.1266 57.1435 17.9153 56.0086 18.0004 54.0745C18.0973 51.8929 19.9211 51.3241 21.4276 51.3866C23.9151 51.4919 26.8166 52.7576 29.6564 54.0688C33.4595 50.7524 36.0938 45.0524 38.3698 40.8258C32.9368 40.4476 27.7093 38.0413 27.9971 31.6445C28.285 25.2477 33.7414 22.5457 38.546 22.7505C41.5562 22.8785 44.6163 24.4485 45.7675 25.9361C46.0465 26.1977 45.8644 26.3883 45.6412 26.1807C44.1258 25.0742 41.5327 23.4246 38.7545 23.3051C34.4727 23.1259 30.1586 26.1721 29.906 31.8237C29.6564 37.3786 32.8428 39.9953 38.6311 40.2883C44.3079 30.0972 54.4779 21.8318 58.5306 21.9996C59.9784 22.0593 61.0856 23.1999 60.9975 25.1852C60.7449 30.7884 51.9934 38.4679 43.4974 40.3935V40.3964ZM21.4129 51.7336C20.1384 51.6796 18.4821 52.4561 18.4174 53.8924C18.344 55.5279 20.7316 56.5746 22.8167 56.6628C25.1896 56.7623 27.3158 55.909 29.119 54.4954C26.4554 53.1416 24.0178 51.8958 21.4159 51.7365L21.4129 51.7336ZM58.6158 22.6509C55.2033 22.5059 48.5339 31.5137 43.8762 39.7137C52.0903 37.5748 60.3044 30.3219 60.5335 25.1653C60.6128 23.3791 59.7171 22.6964 58.6158 22.6509Z" fill="#111111"/>
</g>
<rect x="4.25" y="4.25" width="71.5" height="71.5" rx="35.75" stroke="#111111" stroke-width="0.5" stroke-dasharray="4 4"/>
<defs>
<clipPath id="clip0_320_16">
<rect width="43" height="36" fill="white" transform="translate(18 22)"/>
</clipPath>
</defs>
</svg>
